<svg width="100" height="34" viewBox="0 0 100 34" fill="none" xmlns="http://www.w3.org/2000/svg">
<path d="M40.226 24.3794V10.1121H46.2585C47.7394 10.1121 48.8885 10.4823 49.7056 11.2228C50.5355 11.9505 50.9504 12.9719 50.9504 14.2869C50.9504 14.721 50.8674 15.1423 50.7014 15.5509C50.5482 15.9594 50.2929 16.3361 49.9354 16.6808C50.561 17.1149 50.9823 17.6128 51.1994 18.1745C51.4292 18.7235 51.5441 19.3108 51.5441 19.9364C51.5441 21.3408 51.0781 22.4324 50.1461 23.2112C49.2141 23.99 47.9182 24.3794 46.2585 24.3794H40.226ZM43.1943 15.4743H46.4691C46.9287 15.4743 47.2926 15.3466 47.5607 15.0913C47.8416 14.8231 47.982 14.4721 47.982 14.038C47.982 13.6039 47.8416 13.2592 47.5607 13.0038C47.2926 12.7357 46.9287 12.6017 46.4691 12.6017H43.1943V15.4743ZM43.1943 21.794H46.6032C47.2032 21.794 47.682 21.6217 48.0395 21.277C48.397 20.9323 48.5757 20.4854 48.5757 19.9364C48.5757 19.3747 48.397 18.9214 48.0395 18.5767C47.682 18.232 47.2032 18.0596 46.6032 18.0596H43.1943V21.794ZM53.0697 24.3794V13.9231H55.7508V15.4934C56.0189 14.8423 56.3956 14.4018 56.8807 14.172C57.3786 13.9294 57.9468 13.8082 58.5851 13.8082H59.6767V16.2978H58.2979C57.5957 16.2978 57.0275 16.5148 56.5934 16.9489C56.1594 17.3702 55.9423 17.9703 55.9423 18.7491V24.3794H53.0697ZM65.7336 24.6092C64.6356 24.6092 63.6717 24.3666 62.8418 23.8815C62.0247 23.3836 61.3864 22.7197 60.9268 21.8898C60.4799 21.0599 60.2565 20.1407 60.2565 19.1321C60.2565 18.0852 60.4863 17.1532 60.9459 16.3361C61.4183 15.519 62.0503 14.8742 62.8418 14.4018C63.6462 13.9294 64.5463 13.6933 65.5421 13.6933C66.5252 13.6933 67.4061 13.9231 68.1849 14.3827C68.9637 14.8423 69.5829 15.4615 70.0425 16.2403C70.5022 17.0063 70.732 17.8745 70.732 18.8448C70.732 19.0491 70.7192 19.2534 70.6937 19.4576C70.6809 19.6491 70.649 19.8151 70.5979 19.9556H63.244C63.3334 20.6067 63.6015 21.1301 64.0483 21.5259C64.4952 21.9217 65.0697 22.1196 65.7719 22.1196C66.2826 22.1196 66.7167 22.0175 67.0742 21.8132C67.4444 21.6089 67.7317 21.328 67.936 20.9706L70.234 22.0621C69.9149 22.8282 69.3531 23.4474 68.5488 23.9198C67.7444 24.3794 66.8061 24.6092 65.7336 24.6092ZM65.5421 15.9913C64.9803 15.9913 64.5016 16.1509 64.1058 16.4701C63.71 16.7893 63.4419 17.2489 63.3015 17.849H67.687C67.6359 17.2872 67.4125 16.8404 67.0167 16.5084C66.6337 16.1637 66.1422 15.9913 65.5421 15.9913ZM75.1778 24.6092C74.3862 24.6092 73.6968 24.4751 73.1095 24.207C72.535 23.9262 72.0881 23.5559 71.769 23.0963C71.4625 22.6239 71.3093 22.1005 71.3093 21.5259C71.3093 20.7471 71.603 20.1088 72.1903 19.6108C72.7776 19.1002 73.601 18.7363 74.6607 18.5193L77.9355 17.8298V17.4851C77.9355 17.0893 77.7887 16.7765 77.495 16.5467C77.2014 16.3041 76.812 16.1829 76.3268 16.1829C75.8162 16.1829 75.3629 16.3233 74.9671 16.6042C74.5841 16.8723 74.316 17.2425 74.1628 17.7149L71.6924 16.5276C71.9988 15.6594 72.5669 14.97 73.3968 14.4593C74.2394 13.9486 75.2161 13.6933 76.3268 13.6933C77.2205 13.6933 77.9993 13.8528 78.6632 14.172C79.3399 14.4912 79.8634 14.9381 80.2336 15.5126C80.6166 16.0743 80.8081 16.7318 80.8081 17.4851V24.3794H78.127V23.4219C77.7312 23.8432 77.2908 24.1496 76.8056 24.3411C76.3332 24.5198 75.7906 24.6092 75.1778 24.6092ZM74.2777 21.4876C74.2777 21.8068 74.399 22.0558 74.6416 22.2345C74.8841 22.4132 75.2097 22.5026 75.6183 22.5026C76.2694 22.5026 76.8184 22.2983 77.2652 21.8898C77.7121 21.4812 77.9355 20.9833 77.9355 20.396V19.8981L75.1778 20.5109C74.5777 20.6514 74.2777 20.9769 74.2777 21.4876ZM82.3382 24.3794V13.9231H85.0194V15.187C85.2747 14.6891 85.6322 14.3188 86.0918 14.0763C86.5642 13.8209 87.1196 13.6933 87.7579 13.6933C88.4346 13.6933 89.041 13.8337 89.5772 14.1146C90.1135 14.3827 90.5476 14.7785 90.8795 15.3019C91.1731 14.8168 91.6008 14.4274 92.1626 14.1337C92.7244 13.8401 93.3563 13.6933 94.0585 13.6933C94.7863 13.6933 95.431 13.8592 95.9928 14.1912C96.5545 14.5104 96.9886 14.97 97.295 15.57C97.6142 16.1573 97.7738 16.8531 97.7738 17.6575V24.3794H94.9012V18.2703C94.9012 17.6319 94.7416 17.1404 94.4224 16.7957C94.116 16.451 93.7074 16.2786 93.1967 16.2786C92.6861 16.2786 92.2711 16.451 91.9519 16.7957C91.6455 17.1404 91.4923 17.6319 91.4923 18.2703V24.3794H88.6197V18.2703C88.6197 17.6319 88.4601 17.1404 88.1409 16.7957C87.8345 16.451 87.426 16.2786 86.9153 16.2786C86.4046 16.2786 85.9897 16.451 85.6705 16.7957C85.3641 17.1404 85.2109 17.6319 85.2109 18.2703V24.3794H82.3382Z" fill="#FBFBFB"/>
<ellipse cx="17.4087" cy="16.8365" rx="16.8533" ry="16.7569" fill="#2E42FF"/>
<path fill-rule="evenodd" clip-rule="evenodd" d="M10.9751 23.7105C11.5859 23.7096 12.1715 23.468 12.6034 23.0386C13.0353 22.6091 13.2783 22.0269 13.2792 21.4195V12.2533C13.2783 11.646 13.0353 11.0637 12.6034 10.6343C12.1715 10.2048 11.5859 9.96322 10.9751 9.96236C10.364 9.96306 9.77823 10.2047 9.34616 10.6343C8.91408 11.0639 8.67104 11.6464 8.67034 12.2539V21.4189C8.67104 22.0265 8.91408 22.6089 9.34616 23.0385C9.77823 23.4681 10.364 23.7098 10.9751 23.7105ZM21.5377 21.4192L21.5377 12.2541C21.5384 11.6465 21.7815 11.0641 22.2135 10.6345C22.6456 10.2049 23.2314 9.96322 23.8424 9.96257C24.4535 9.96326 25.0393 10.2049 25.4714 10.6345C25.9034 11.0641 26.1465 11.6466 26.1472 12.2541L26.1472 21.4191C26.1465 22.0267 25.9034 22.6091 25.4714 23.0387C25.0393 23.4683 24.4535 23.71 23.8424 23.7107C23.2314 23.71 22.6456 23.4683 22.2135 23.0388C21.7815 22.6092 21.5384 22.0267 21.5377 21.4192ZM19.0359 19.602C18.6039 20.0316 18.018 20.2733 17.407 20.2739C16.7959 20.2732 16.2101 20.0316 15.7781 19.602C15.346 19.1724 15.103 18.5899 15.1023 17.9824V15.6909C15.103 15.0833 15.346 14.5009 15.7781 14.0713C16.2101 13.6417 16.7959 13.4 17.407 13.3993C18.018 13.4 18.6039 13.6417 19.0359 14.0712C19.468 14.5008 19.711 15.0833 19.7117 15.6908V17.9824C19.711 18.59 19.468 19.1724 19.0359 19.602Z" fill="white"/>
</svg>
